<svg xmlns="http://www.w3.org/2000/svg" viewBox="0 0 300 260" role="img" aria-label="far object illustration" data-vowel-garden-visual="semantic-illustration">
  <style>
    .float{animation:vgFloat 3.2s ease-in-out infinite}.pulse{animation:vgPulse 2.4s ease-in-out infinite}.steam{animation:vgSteam 2.2s ease-in-out infinite}.walk{animation:vgWalk 1.8s ease-in-out infinite}.look{animation:vgLook 2.8s ease-in-out infinite}
    @keyframes vgFloat{0%,100%{transform:translateY(0)}50%{transform:translateY(-5px)}}@keyframes vgPulse{0%,100%{opacity:.72;transform:scale(1)}50%{opacity:1;transform:scale(1.04)}}@keyframes vgSteam{0%,100%{opacity:.38;transform:translateY(0)}50%{opacity:.9;transform:translateY(-8px)}}@keyframes vgWalk{0%,100%{transform:rotate(-2deg)}50%{transform:rotate(3deg)}}@keyframes vgLook{0%,100%{transform:translateX(0)}50%{transform:translateX(5px)}}@media (prefers-reduced-motion: reduce){.float,.pulse,.steam,.walk,.look{animation:none}}
  </style>
  <rect width="300" height="260" rx="30" fill="#eef8ff"/>
  <rect x="18" y="18" width="264" height="224" rx="26" fill="#fff" opacity=".86"/>
  <circle cx="252" cy="44" r="24" fill="#fff" opacity=".58"/>
  <circle cx="44" cy="218" r="28" fill="#fff" opacity=".42"/>
  <ellipse cx="154" cy="216" rx="96" ry="12" fill="#20302d" opacity="0.12"/><g transform="translate(62 142) scale(0.68)">
    <path d="M-23 40c4-28 18-43 37-43s33 15 39 43Z" fill="#4d84b8"/>
    <circle cx="12" cy="-28" r="24" fill="#eeb08f"/>
    <path d="M-11-34c9-20 42-18 50 3-10-3-21-4-34-1-6 1-12 1-16-2Z" fill="#4b3428"/>
    <path d="M1-18c7 7 19 7 26 0" fill="none" stroke="#20302d" stroke-width="5" stroke-linecap="round"/>
    <circle cx="2" cy="-27" r="3.4" fill="#20302d"/><circle cx="28" cy="-27" r="3.4" fill="#20302d"/>
    
  </g><path d="M28 112h244" stroke="#4d84b8" stroke-width="6" opacity=".18" stroke-linecap="round"/><rect class="pulse" x="218" y="82" width="36" height="30" rx="8" fill="#e87562" opacity=".54" stroke="#e87562" stroke-width="4"/><path class="pulse" d="M96 142L220 98" fill="none" stroke="#e87562" stroke-width="9" stroke-linecap="round"/>
  <path d="M220 98L206.38039903304522 113.44365466788624M220 98L199.69220212962992 94.5950997582613" fill="none" stroke="#e87562" stroke-width="8" stroke-linecap="round" stroke-linejoin="round"/><path d="M184 110c18-24 46-30 76-18" fill="none" stroke="#2f8f67" stroke-width="10" opacity=".18" stroke-linecap="round"/><circle cx="246" cy="58" r="13" fill="#e2a844" opacity=".5"/>
</svg>
