<svg xmlns="http://www.w3.org/2000/svg" viewBox="0 0 300 260" role="img" aria-label="bus illustration" data-vowel-garden-visual="semantic-illustration">
  <style>
    .float{animation:vgFloat 3.2s ease-in-out infinite}.pulse{animation:vgPulse 2.4s ease-in-out infinite}.steam{animation:vgSteam 2.2s ease-in-out infinite}.walk{animation:vgWalk 1.8s ease-in-out infinite}.look{animation:vgLook 2.8s ease-in-out infinite}
    @keyframes vgFloat{0%,100%{transform:translateY(0)}50%{transform:translateY(-5px)}}@keyframes vgPulse{0%,100%{opacity:.72;transform:scale(1)}50%{opacity:1;transform:scale(1.04)}}@keyframes vgSteam{0%,100%{opacity:.38;transform:translateY(0)}50%{opacity:.9;transform:translateY(-8px)}}@keyframes vgWalk{0%,100%{transform:rotate(-2deg)}50%{transform:rotate(3deg)}}@keyframes vgLook{0%,100%{transform:translateX(0)}50%{transform:translateX(5px)}}@media (prefers-reduced-motion: reduce){.float,.pulse,.steam,.walk,.look{animation:none}}
  </style>
  <rect width="300" height="260" rx="30" fill="#fff8e7"/>
  <rect x="18" y="18" width="264" height="224" rx="26" fill="#fff" opacity=".86"/>
  <circle cx="252" cy="44" r="24" fill="#fff" opacity=".58"/>
  <circle cx="44" cy="218" r="28" fill="#fff" opacity=".42"/>
  <ellipse cx="150" cy="218" rx="104" ry="12" fill="#20302d" opacity="0.12"/><g class="float"><g transform="translate(150 126) scale(0.88)">
    <rect x="-92" y="-42" width="184" height="98" rx="18" fill="#e2a844" stroke="#20302d" stroke-width="7"/>
    <path d="M-70-60h104c28 0 52 22 58 50H-84c2-21 6-38 14-50Z" fill="#e2a844" stroke="#20302d" stroke-width="7" stroke-linejoin="round"/>
    <rect x="-66" y="-30" width="40" height="34" rx="7" fill="#dff1ff"/><rect x="-14" y="-30" width="40" height="34" rx="7" fill="#dff1ff"/><rect x="38" y="-30" width="34" height="34" rx="7" fill="#dff1ff"/>
    <circle cx="-54" cy="58" r="17" fill="#20302d" opacity=".72"/><circle cx="54" cy="58" r="17" fill="#20302d" opacity=".72"/>
    <circle cx="-54" cy="58" r="7" fill="#fff" opacity=".58"/><circle cx="54" cy="58" r="7" fill="#fff" opacity=".58"/>
    <path d="M-112 84H112M-94 100H94" stroke="#20302d" stroke-width="6" stroke-linecap="round" opacity=".14"/>
  </g></g><circle cx="230" cy="58" r="17" fill="#e2a844" opacity=".18"/><path d="M62 210h176" stroke="#20302d" stroke-width="8" opacity=".12" stroke-linecap="round"/>
</svg>
