<svg xmlns="http://www.w3.org/2000/svg" viewBox="0 0 300 260" role="img" aria-label="write illustration" data-vowel-garden-visual="semantic-illustration">
  <style>
    .float{animation:vgFloat 3.2s ease-in-out infinite}.pulse{animation:vgPulse 2.4s ease-in-out infinite}.steam{animation:vgSteam 2.2s ease-in-out infinite}.walk{animation:vgWalk 1.8s ease-in-out infinite}.look{animation:vgLook 2.8s ease-in-out infinite}
    @keyframes vgFloat{0%,100%{transform:translateY(0)}50%{transform:translateY(-5px)}}@keyframes vgPulse{0%,100%{opacity:.72;transform:scale(1)}50%{opacity:1;transform:scale(1.04)}}@keyframes vgSteam{0%,100%{opacity:.38;transform:translateY(0)}50%{opacity:.9;transform:translateY(-8px)}}@keyframes vgWalk{0%,100%{transform:rotate(-2deg)}50%{transform:rotate(3deg)}}@keyframes vgLook{0%,100%{transform:translateX(0)}50%{transform:translateX(5px)}}@media (prefers-reduced-motion: reduce){.float,.pulse,.steam,.walk,.look{animation:none}}
  </style>
  <rect width="300" height="260" rx="30" fill="#fff8e7"/>
  <rect x="18" y="18" width="264" height="224" rx="26" fill="#fff" opacity=".86"/>
  <circle cx="252" cy="44" r="24" fill="#fff" opacity=".58"/>
  <circle cx="44" cy="218" r="28" fill="#fff" opacity=".42"/>
  <ellipse cx="150" cy="218" rx="96" ry="12" fill="#20302d" opacity="0.12"/><g class="float"><g transform="translate(148 120) scale(0.9)">
    <rect x="-78" y="-66" width="142" height="140" rx="16" fill="#fff" stroke="#20302d" stroke-width="7"/>
    <path d="M-48-30h70M-48-4h88M-48 22h62" stroke="#5d6f82" stroke-width="6" stroke-linecap="round" opacity=".48"/>
    <path class="float" d="M34 54 86 2l24 24-52 52-30 6Z" fill="#e2a844" stroke="#20302d" stroke-width="6" stroke-linejoin="round"/>
    <path d="M84 4 108 28M58 78l-17 3" stroke="#20302d" stroke-width="5" stroke-linecap="round"/>
    <path d="M-86 98H86" stroke="#20302d" stroke-width="7" opacity=".12" stroke-linecap="round"/>
  </g></g><circle cx="228" cy="62" r="16" fill="#e2a844" opacity=".15"/><path d="M76 210h148" stroke="#e2a844" stroke-width="8" opacity=".16" stroke-linecap="round"/>
</svg>
