<svg xmlns="http://www.w3.org/2000/svg" viewBox="0 0 300 260" role="img" aria-label="child illustration" data-vowel-garden-visual="semantic-illustration">
  <style>
    .float{animation:vgFloat 3.2s ease-in-out infinite}.pulse{animation:vgPulse 2.4s ease-in-out infinite}.steam{animation:vgSteam 2.2s ease-in-out infinite}.walk{animation:vgWalk 1.8s ease-in-out infinite}.look{animation:vgLook 2.8s ease-in-out infinite}
    @keyframes vgFloat{0%,100%{transform:translateY(0)}50%{transform:translateY(-5px)}}@keyframes vgPulse{0%,100%{opacity:.72;transform:scale(1)}50%{opacity:1;transform:scale(1.04)}}@keyframes vgSteam{0%,100%{opacity:.38;transform:translateY(0)}50%{opacity:.9;transform:translateY(-8px)}}@keyframes vgWalk{0%,100%{transform:rotate(-2deg)}50%{transform:rotate(3deg)}}@keyframes vgLook{0%,100%{transform:translateX(0)}50%{transform:translateX(5px)}}@media (prefers-reduced-motion: reduce){.float,.pulse,.steam,.walk,.look{animation:none}}
  </style>
  <rect width="300" height="260" rx="30" fill="#fff8e7"/>
  <rect x="18" y="18" width="264" height="224" rx="26" fill="#fff" opacity=".86"/>
  <circle cx="252" cy="44" r="24" fill="#fff" opacity=".58"/>
  <circle cx="44" cy="218" r="28" fill="#fff" opacity=".42"/>
  <ellipse cx="150" cy="218" rx="92" ry="12" fill="#20302d" opacity="0.12"/><g transform="translate(136 150) scale(0.58)">
    <path d="M-23 40c4-28 18-43 37-43s33 15 39 43Z" fill="#e2a844"/>
    <circle cx="12" cy="-28" r="24" fill="#eeb08f"/>
    <path d="M-11-34c9-20 42-18 50 3-10-3-21-4-34-1-6 1-12 1-16-2Z" fill="#4b3428"/>
    <path d="M1-18c7 7 19 7 26 0" fill="none" stroke="#20302d" stroke-width="5" stroke-linecap="round"/>
    <circle cx="2" cy="-27" r="3.4" fill="#20302d"/><circle cx="28" cy="-27" r="3.4" fill="#20302d"/>
    
  </g><circle class="float" cx="206" cy="148" r="24" fill="#e87562" stroke="#20302d" stroke-width="6"/><path d="M194 148h24M206 136v24" stroke="#fff" stroke-width="6" stroke-linecap="round" opacity=".72"/><circle cx="82" cy="76" r="17" fill="#e2a844" opacity=".18"/>
</svg>
