<svg xmlns="http://www.w3.org/2000/svg" viewBox="0 0 300 260" role="img" aria-label="Japan illustration" data-vowel-garden-visual="semantic-illustration">
  <style>
    .float{animation:vgFloat 3.2s ease-in-out infinite}.pulse{animation:vgPulse 2.4s ease-in-out infinite}.steam{animation:vgSteam 2.2s ease-in-out infinite}.walk{animation:vgWalk 1.8s ease-in-out infinite}.look{animation:vgLook 2.8s ease-in-out infinite}
    @keyframes vgFloat{0%,100%{transform:translateY(0)}50%{transform:translateY(-5px)}}@keyframes vgPulse{0%,100%{opacity:.72;transform:scale(1)}50%{opacity:1;transform:scale(1.04)}}@keyframes vgSteam{0%,100%{opacity:.38;transform:translateY(0)}50%{opacity:.9;transform:translateY(-8px)}}@keyframes vgWalk{0%,100%{transform:rotate(-2deg)}50%{transform:rotate(3deg)}}@keyframes vgLook{0%,100%{transform:translateX(0)}50%{transform:translateX(5px)}}@media (prefers-reduced-motion: reduce){.float,.pulse,.steam,.walk,.look{animation:none}}
  </style>
  <rect width="300" height="260" rx="30" fill="#f6fbff"/>
  <rect x="18" y="18" width="264" height="224" rx="26" fill="#fff" opacity=".86"/>
  <circle cx="252" cy="44" r="24" fill="#fff" opacity=".58"/>
  <circle cx="44" cy="218" r="28" fill="#fff" opacity=".42"/>
  <ellipse cx="150" cy="214" rx="84" ry="12" fill="#20302d" opacity="0.12"/><circle class="pulse" cx="218" cy="58" r="26" fill="#e87562" opacity=".88"/><g class="float"><path d="M124 50c22 16 22 36 6 55 29 12 29 37 5 57 16 13 13 34-4 44" fill="none" stroke="#2f8f67" stroke-width="18" stroke-linecap="round" stroke-linejoin="round"/><path d="M87 92c18 13 18 31 0 49" fill="none" stroke="#2f9a90" stroke-width="15" stroke-linecap="round"/><path d="M164 107c16 10 15 26-2 42" fill="none" stroke="#256a4d" stroke-width="14" stroke-linecap="round"/></g><path d="M76 210c43 15 106 15 150 0" fill="none" stroke="#4d84b8" stroke-width="8" stroke-linecap="round" opacity=".22"/><circle cx="98" cy="58" r="9" fill="#4d84b8" opacity=".35"/>
</svg>
