<svg xmlns="http://www.w3.org/2000/svg" viewBox="0 0 300 260" role="img" aria-label="day off illustration" data-vowel-garden-visual="semantic-illustration">
  <style>
    .float{animation:vgFloat 3.2s ease-in-out infinite}.pulse{animation:vgPulse 2.4s ease-in-out infinite}.steam{animation:vgSteam 2.2s ease-in-out infinite}.walk{animation:vgWalk 1.8s ease-in-out infinite}.look{animation:vgLook 2.8s ease-in-out infinite}
    @keyframes vgFloat{0%,100%{transform:translateY(0)}50%{transform:translateY(-5px)}}@keyframes vgPulse{0%,100%{opacity:.72;transform:scale(1)}50%{opacity:1;transform:scale(1.04)}}@keyframes vgSteam{0%,100%{opacity:.38;transform:translateY(0)}50%{opacity:.9;transform:translateY(-8px)}}@keyframes vgWalk{0%,100%{transform:rotate(-2deg)}50%{transform:rotate(3deg)}}@keyframes vgLook{0%,100%{transform:translateX(0)}50%{transform:translateX(5px)}}@media (prefers-reduced-motion: reduce){.float,.pulse,.steam,.walk,.look{animation:none}}
  </style>
  <rect width="300" height="260" rx="30" fill="#f6fbff"/>
  <rect x="18" y="18" width="264" height="224" rx="26" fill="#fff" opacity=".86"/>
  <circle cx="252" cy="44" r="24" fill="#fff" opacity=".58"/>
  <circle cx="44" cy="218" r="28" fill="#fff" opacity=".42"/>
  <ellipse cx="150" cy="218" rx="104" ry="12" fill="#20302d" opacity="0.12"/><g transform="translate(102 142) scale(0.62)">
    <path d="M-72-12 0-74 72-12" fill="#e87562" stroke="#20302d" stroke-width="6" stroke-linejoin="round"/>
    <rect x="-54" y="-12" width="108" height="78" rx="10" fill="#fff3df" stroke="#20302d" stroke-width="6"/>
    <rect x="-12" y="22" width="24" height="44" rx="5" fill="#2f8f67"/>
    <rect x="-42" y="4" width="22" height="20" rx="4" fill="#dff1ff"/><rect x="20" y="4" width="22" height="20" rx="4" fill="#dff1ff"/>
  </g><g class="float"><g transform="translate(202 136) scale(0.5)">
    <path d="M-96 68c40-46 152-46 192 0" fill="#2f8f67" opacity=".18"/>
    <path d="M-66 54h132" stroke="#2f8f67" stroke-width="10" stroke-linecap="round" opacity=".32"/>
    <path d="M-58 16h116v30H-58Z" fill="#e2a844" stroke="#20302d" stroke-width="6" stroke-linejoin="round"/>
    <path d="M-70 46h140M-42 16v56M42 16v56" stroke="#20302d" stroke-width="6" stroke-linecap="round" opacity=".72"/>
    <path d="M-100 64h200" stroke="#20302d" stroke-width="7" stroke-linecap="round" opacity=".12"/>
    <g class="float"><circle cx="-70" cy="-30" r="34" fill="#2f8f67" stroke="#20302d" stroke-width="6"/><rect x="-78" y="-4" width="16" height="70" rx="7" fill="#9b6b42"/></g>
    <circle cx="76" cy="-40" r="30" fill="#2f9a90" stroke="#20302d" stroke-width="6"/><rect x="68" y="-18" width="16" height="80" rx="7" fill="#9b6b42"/>
  </g></g><path class="pulse" d="M126 94c24-20 58-20 82 0" fill="none" stroke="#2f8f67" stroke-width="9" stroke-linecap="round" opacity=".42"/><circle cx="230" cy="62" r="17" fill="#2f8f67" opacity=".14"/><path d="M66 210h168" stroke="#2f8f67" stroke-width="8" opacity=".15" stroke-linecap="round"/>
</svg>
