<svg xmlns="http://www.w3.org/2000/svg" viewBox="0 0 300 260" role="img" aria-label="night illustration" data-vowel-garden-visual="semantic-illustration">
  <style>
    .float{animation:vgFloat 3.2s ease-in-out infinite}.pulse{animation:vgPulse 2.4s ease-in-out infinite}.steam{animation:vgSteam 2.2s ease-in-out infinite}.walk{animation:vgWalk 1.8s ease-in-out infinite}.look{animation:vgLook 2.8s ease-in-out infinite}
    @keyframes vgFloat{0%,100%{transform:translateY(0)}50%{transform:translateY(-5px)}}@keyframes vgPulse{0%,100%{opacity:.72;transform:scale(1)}50%{opacity:1;transform:scale(1.04)}}@keyframes vgSteam{0%,100%{opacity:.38;transform:translateY(0)}50%{opacity:.9;transform:translateY(-8px)}}@keyframes vgWalk{0%,100%{transform:rotate(-2deg)}50%{transform:rotate(3deg)}}@keyframes vgLook{0%,100%{transform:translateX(0)}50%{transform:translateX(5px)}}@media (prefers-reduced-motion: reduce){.float,.pulse,.steam,.walk,.look{animation:none}}
  </style>
  <rect width="300" height="260" rx="30" fill="#eef5ff"/>
  <rect x="18" y="18" width="264" height="224" rx="26" fill="#fff" opacity=".86"/>
  <circle cx="252" cy="44" r="24" fill="#fff" opacity=".58"/>
  <circle cx="44" cy="218" r="28" fill="#fff" opacity=".42"/>
  <ellipse cx="150" cy="218" rx="96" ry="12" fill="#20302d" opacity="0.12"/><circle class="float" cx="206" cy="76" r="42" fill="#e2a844" opacity=".82"/><circle cx="222" cy="64" r="38" fill="#eef5ff"/><circle cx="78" cy="72" r="5" fill="#4d84b8" opacity=".55"/><circle cx="104" cy="58" r="4" fill="#4d84b8" opacity=".5"/><g class="float"><g transform="translate(136 148) scale(0.54)">
    <path d="M-72-42h58c16 0 28 12 28 28v84h-58c-16 0-28-12-28-28Z" fill="#fff" stroke="#2f8f67" stroke-width="7" stroke-linejoin="round"/>
    <path d="M14-14c0-16 12-28 28-28h50v112H14Z" fill="#fff" stroke="#2f8f67" stroke-width="7" stroke-linejoin="round"/>
    <path d="M-42-6h34M-42 18h38M38-6h32M38 18h26" fill="none" stroke="#5d6f82" stroke-width="5" stroke-linecap="round" opacity=".68"/>
    <path d="M14-36v100" stroke="#2f8f67" stroke-width="5" stroke-linecap="round"/>
  </g></g><path d="M74 208h152" stroke="#4d84b8" stroke-width="8" opacity=".16" stroke-linecap="round"/>
</svg>
