<svg xmlns="http://www.w3.org/2000/svg" viewBox="0 0 300 260" role="img" aria-label="snow illustration" data-vowel-garden-visual="semantic-illustration">
  <style>
    .float{animation:vgFloat 3.2s ease-in-out infinite}.pulse{animation:vgPulse 2.4s ease-in-out infinite}.steam{animation:vgSteam 2.2s ease-in-out infinite}.walk{animation:vgWalk 1.8s ease-in-out infinite}.look{animation:vgLook 2.8s ease-in-out infinite}
    @keyframes vgFloat{0%,100%{transform:translateY(0)}50%{transform:translateY(-5px)}}@keyframes vgPulse{0%,100%{opacity:.72;transform:scale(1)}50%{opacity:1;transform:scale(1.04)}}@keyframes vgSteam{0%,100%{opacity:.38;transform:translateY(0)}50%{opacity:.9;transform:translateY(-8px)}}@keyframes vgWalk{0%,100%{transform:rotate(-2deg)}50%{transform:rotate(3deg)}}@keyframes vgLook{0%,100%{transform:translateX(0)}50%{transform:translateX(5px)}}@media (prefers-reduced-motion: reduce){.float,.pulse,.steam,.walk,.look{animation:none}}
  </style>
  <rect width="300" height="260" rx="30" fill="#f6fbff"/>
  <rect x="18" y="18" width="264" height="224" rx="26" fill="#fff" opacity=".86"/>
  <circle cx="252" cy="44" r="24" fill="#fff" opacity=".58"/>
  <circle cx="44" cy="218" r="28" fill="#fff" opacity=".42"/>
  <ellipse cx="150" cy="218" rx="98" ry="12" fill="#20302d" opacity="0.12"/><g transform="translate(150 112) scale(0.9)">
    <path d="M-82 20c-18-34 20-65 50-45 18-42 84-30 86 16 38-2 54 48 18 67H-72c-28 0-42-25-10-38Z" fill="#fff" stroke="#20302d" stroke-width="7" stroke-linejoin="round"/>
    <path class="float" d="M-46 42v30M-61 57h30M-56 47l20 20M-36 47l-20 20M14 42v30M-1 57h30M4 47l20 20M24 47 4 67" stroke="#4d84b8" stroke-width="5" stroke-linecap="round"/>
         <circle cx="62" cy="70" r="10" fill="#fff" stroke="#4d84b8" stroke-width="5"/>
    <path d="M-94 104H94" stroke="#20302d" stroke-width="7" opacity=".12" stroke-linecap="round"/>
  </g><circle cx="232" cy="62" r="16" fill="#4d84b8" opacity=".15"/><path d="M84 208h132" stroke="#4d84b8" stroke-width="8" opacity=".12" stroke-linecap="round"/>
</svg>
